# xmcd
#
# Track frame offsets: 
#        150
#        33777
#        68428
#        112834
#        150862
#        172298
#        194138
#
# Disc length: 2992 seconds
#
# Revision: 0
# Processed by: cddbd v1.5.2PL0 Copyright (c) Steve Scherf et al.
# Submitted via: ExactAudioCopyFreeDBPlugin 1.0
#
DISCID=500bae07
DTITLE=Jody Watley - Looking For A New Love (Dance Mixes)
DYEAR=2005
DGENRE=Dance
TTITLE0=Looking For A New Love (ROCAsound Vocal Mix)
TTITLE1=Looking For A New Love (Jody Watley vs. Alison Limerick)
TTITLE2=Looking For A New Love (Chus Ceballos Mix)
TTITLE3=Looking For A New Love (Craig Christensen Mix)
TTITLE4=Looking For A New Love (Chris Joss Stripped Mix)
TTITLE5=Looking For A New Love (Heinrich Z Mix)
TTITLE6=Looking For A New Love (Levon Vincent Mix)
EXTD=
EXTT0=
EXTT1=
EXTT2=
EXTT3=
EXTT4=
EXTT5=
EXTT6=
PLAYORDER=
